<?xml version="1.0" standalone="no"?>
<!DOCTYPE svg PUBLIC "-//W3C//DTD SVG 20010904//EN"
 "http://www.w3.org/TR/2001/REC-SVG-20010904/DTD/svg10.dtd">
<svg version="1.0" xmlns="http://www.w3.org/2000/svg"
 width="256.000000pt" height="256.000000pt" viewBox="0 0 256.000000 256.000000"
 preserveAspectRatio="xMidYMid meet">
<metadata>
Created by potrace 1.14, written by Peter Selinger 2001-2017
</metadata>
<g transform="translate(0.000000,256.000000) scale(0.100000,-0.100000)"
fill="#000000" stroke="none">
<path d="M155 2499 c-51 -12 -96 -43 -126 -87 l-24 -36 0 -1096 0 -1096 24
-36 c31 -45 75 -74 131 -87 62 -14 2178 -14 2240 0 56 13 100 42 131 87 l24
36 0 1096 0 1096 -24 36 c-31 45 -75 74 -131 87 -58 14 -2188 13 -2245 0z"/>
</g>
</svg>
